{
    "asset" : {
        "generator" : "Khronos glTF Blender I/O v1.7.33",
        "version" : "2.0"
    },
    "scene" : 0,
    "scenes" : [
        {
            "name" : "Scene",
            "nodes" : [
                0,
                4,
                5,
                6,
                7
            ]
        }
    ],
    "nodes" : [
        {
            "mesh" : 0,
            "name" : "PaintingReferencePlace"
        },
        {
            "mesh" : 1,
            "name" : "Baseboard"
        },
        {
            "mesh" : 2,
            "name" : "Ceiling"
        },
        {
            "mesh" : 3,
            "name" : "Floor"
        },
        {
            "children" : [
                1,
                2,
                3
            ],
            "mesh" : 4,
            "name" : "Room"
        },
        {
            "mesh" : 5,
            "name" : "RoomPaintingBoard"
        },
        {
            "mesh" : 6,
            "name" : "RoomPaintingBoard.001"
        },
        {
            "mesh" : 7,
            "name" : "RoomPaintingBoard.002",
            "rotation" : [
                -0.4999999701976776,
                0.5,
                0.5,
                0.5
            ],
            "translation" : [
                10,
                1,
                -10
            ]
        }
    ],
    "meshes" : [
        {
            "name" : "Plane.004",
            "primitives" : [
                {
                    "attributes" : {
                        "POSITION" : 0,
                        "NORMAL" : 1,
                        "TEXCOORD_0" : 2
                    },
                    "indices" : 3
                }
            ]
        },
        {
            "name" : "Baseboard",
            "primitives" : [
                {
                    "attributes" : {
                        "POSITION" : 4,
                        "NORMAL" : 5,
                        "TEXCOORD_0" : 6
                    },
                    "indices" : 7
                }
            ]
        },
        {
            "name" : "Ceiling",
            "primitives" : [
                {
                    "attributes" : {
                        "POSITION" : 8,
                        "NORMAL" : 9,
                        "TEXCOORD_0" : 10
                    },
                    "indices" : 11
                }
            ]
        },
        {
            "name" : "Floor",
            "primitives" : [
                {
                    "attributes" : {
                        "POSITION" : 12,
                        "NORMAL" : 13,
                        "TEXCOORD_0" : 14
                    },
                    "indices" : 15
                }
            ]
        },
        {
            "name" : "Room",
            "primitives" : [
                {
                    "attributes" : {
                        "POSITION" : 16,
                        "NORMAL" : 17,
                        "TEXCOORD_0" : 18
                    },
                    "indices" : 19
                }
            ]
        },
        {
            "name" : "Plane",
            "primitives" : [
                {
                    "attributes" : {
                        "POSITION" : 20,
                        "NORMAL" : 21,
                        "TEXCOORD_0" : 22
                    },
                    "indices" : 23
                }
            ]
        },
        {
            "name" : "Plane.003",
            "primitives" : [
                {
                    "attributes" : {
                        "POSITION" : 24,
                        "NORMAL" : 25,
                        "TEXCOORD_0" : 26
                    },
                    "indices" : 23
                }
            ]
        },
        {
            "name" : "Plane.001",
            "primitives" : [
                {
                    "attributes" : {
                        "POSITION" : 27,
                        "NORMAL" : 28,
                        "TEXCOORD_0" : 29
                    },
                    "indices" : 30
                }
            ]
        }
    ],
    "accessors" : [
        {
            "bufferView" : 0,
            "componentType" : 5126,
            "count" : 4,
            "max" : [
                20.049821853637695,
                1.6897860765457153,
                -9.966136932373047
            ],
            "min" : [
                20.0498104095459,
                1.622059941291809,
                -10.033863067626953
            ],
            "type" : "VEC3"
        },
        {
            "bufferView" : 1,
            "componentType" : 5126,
            "count" : 4,
            "type" : "VEC3"
        },
        {
            "bufferView" : 2,
            "componentType" : 5126,
            "count" : 4,
            "type" : "VEC2"
        },
        {
            "bufferView" : 3,
            "componentType" : 5123,
            "count" : 6,
            "type" : "SCALAR"
        },
        {
            "bufferView" : 4,
            "componentType" : 5126,
            "count" : 58,
            "max" : [
                40,
                0.11999999731779099,
                0
            ],
            "min" : [
                0,
                0,
                -20
            ],
            "type" : "VEC3"
        },
        {
            "bufferView" : 5,
            "componentType" : 5126,
            "count" : 58,
            "type" : "VEC3"
        },
        {
            "bufferView" : 6,
            "componentType" : 5126,
            "count" : 58,
            "type" : "VEC2"
        },
        {
            "bufferView" : 7,
            "componentType" : 5123,
            "count" : 96,
            "type" : "SCALAR"
        },
        {
            "bufferView" : 8,
            "componentType" : 5126,
            "count" : 5,
            "max" : [
                40,
                4.5,
                0
            ],
            "min" : [
                0,
                4.5,
                -20
            ],
            "type" : "VEC3"
        },
        {
            "bufferView" : 9,
            "componentType" : 5126,
            "count" : 5,
            "type" : "VEC3"
        },
        {
            "bufferView" : 10,
            "componentType" : 5126,
            "count" : 5,
            "type" : "VEC2"
        },
        {
            "bufferView" : 11,
            "componentType" : 5123,
            "count" : 9,
            "type" : "SCALAR"
        },
        {
            "bufferView" : 12,
            "componentType" : 5126,
            "count" : 5,
            "max" : [
                40,
                0,
                0
            ],
            "min" : [
                0,
                0,
                -20
            ],
            "type" : "VEC3"
        },
        {
            "bufferView" : 13,
            "componentType" : 5126,
            "count" : 5,
            "type" : "VEC3"
        },
        {
            "bufferView" : 14,
            "componentType" : 5126,
            "count" : 5,
            "type" : "VEC2"
        },
        {
            "bufferView" : 15,
            "componentType" : 5123,
            "count" : 9,
            "type" : "SCALAR"
        },
        {
            "bufferView" : 16,
            "componentType" : 5126,
            "count" : 60,
            "max" : [
                40.099998474121094,
                4.5,
                0.10000000149011612
            ],
            "min" : [
                -0.10000000149011612,
                0,
                -20.100000381469727
            ],
            "type" : "VEC3"
        },
        {
            "bufferView" : 17,
            "componentType" : 5126,
            "count" : 60,
            "type" : "VEC3"
        },
        {
            "bufferView" : 18,
            "componentType" : 5126,
            "count" : 60,
            "type" : "VEC2"
        },
        {
            "bufferView" : 19,
            "componentType" : 5123,
            "count" : 120,
            "type" : "SCALAR"
        },
        {
            "bufferView" : 20,
            "componentType" : 5126,
            "count" : 24,
            "max" : [
                20,
                3,
                -8
            ],
            "min" : [
                19.625051498413086,
                0,
                -12
            ],
            "type" : "VEC3"
        },
        {
            "bufferView" : 21,
            "componentType" : 5126,
            "count" : 24,
            "type" : "VEC3"
        },
        {
            "bufferView" : 22,
            "componentType" : 5126,
            "count" : 24,
            "type" : "VEC2"
        },
        {
            "bufferView" : 23,
            "componentType" : 5123,
            "count" : 36,
            "type" : "SCALAR"
        },
        {
            "bufferView" : 24,
            "componentType" : 5126,
            "count" : 24,
            "max" : [
                30,
                3,
                -8
            ],
            "min" : [
                29.625051498413086,
                0,
                -12
            ],
            "type" : "VEC3"
        },
        {
            "bufferView" : 25,
            "componentType" : 5126,
            "count" : 24,
            "type" : "VEC3"
        },
        {
            "bufferView" : 26,
            "componentType" : 5126,
            "count" : 24,
            "type" : "VEC2"
        },
        {
            "bufferView" : 27,
            "componentType" : 5126,
            "count" : 24,
            "max" : [
                2,
                0.3749484717845917,
                2
            ],
            "min" : [
                -2,
                0,
                -1
            ],
            "type" : "VEC3"
        },
        {
            "bufferView" : 28,
            "componentType" : 5126,
            "count" : 24,
            "type" : "VEC3"
        },
        {
            "bufferView" : 29,
            "componentType" : 5126,
            "count" : 24,
            "type" : "VEC2"
        },
        {
            "bufferView" : 30,
            "componentType" : 5123,
            "count" : 36,
            "type" : "SCALAR"
        }
    ],
    "bufferViews" : [
        {
            "buffer" : 0,
            "byteLength" : 48,
            "byteOffset" : 0
        },
        {
            "buffer" : 0,
            "byteLength" : 48,
            "byteOffset" : 48
        },
        {
            "buffer" : 0,
            "byteLength" : 32,
            "byteOffset" : 96
        },
        {
            "buffer" : 0,
            "byteLength" : 12,
            "byteOffset" : 128
        },
        {
            "buffer" : 0,
            "byteLength" : 696,
            "byteOffset" : 140
        },
        {
            "buffer" : 0,
            "byteLength" : 696,
            "byteOffset" : 836
        },
        {
            "buffer" : 0,
            "byteLength" : 464,
            "byteOffset" : 1532
        },
        {
            "buffer" : 0,
            "byteLength" : 192,
            "byteOffset" : 1996
        },
        {
            "buffer" : 0,
            "byteLength" : 60,
            "byteOffset" : 2188
        },
        {
            "buffer" : 0,
            "byteLength" : 60,
            "byteOffset" : 2248
        },
        {
            "buffer" : 0,
            "byteLength" : 40,
            "byteOffset" : 2308
        },
        {
            "buffer" : 0,
            "byteLength" : 18,
            "byteOffset" : 2348
        },
        {
            "buffer" : 0,
            "byteLength" : 60,
            "byteOffset" : 2368
        },
        {
            "buffer" : 0,
            "byteLength" : 60,
            "byteOffset" : 2428
        },
        {
            "buffer" : 0,
            "byteLength" : 40,
            "byteOffset" : 2488
        },
        {
            "buffer" : 0,
            "byteLength" : 18,
            "byteOffset" : 2528
        },
        {
            "buffer" : 0,
            "byteLength" : 720,
            "byteOffset" : 2548
        },
        {
            "buffer" : 0,
            "byteLength" : 720,
            "byteOffset" : 3268
        },
        {
            "buffer" : 0,
            "byteLength" : 480,
            "byteOffset" : 3988
        },
        {
            "buffer" : 0,
            "byteLength" : 240,
            "byteOffset" : 4468
        },
        {
            "buffer" : 0,
            "byteLength" : 288,
            "byteOffset" : 4708
        },
        {
            "buffer" : 0,
            "byteLength" : 288,
            "byteOffset" : 4996
        },
        {
            "buffer" : 0,
            "byteLength" : 192,
            "byteOffset" : 5284
        },
        {
            "buffer" : 0,
            "byteLength" : 72,
            "byteOffset" : 5476
        },
        {
            "buffer" : 0,
            "byteLength" : 288,
            "byteOffset" : 5548
        },
        {
            "buffer" : 0,
            "byteLength" : 288,
            "byteOffset" : 5836
        },
        {
            "buffer" : 0,
            "byteLength" : 192,
            "byteOffset" : 6124
        },
        {
            "buffer" : 0,
            "byteLength" : 288,
            "byteOffset" : 6316
        },
        {
            "buffer" : 0,
            "byteLength" : 288,
            "byteOffset" : 6604
        },
        {
            "buffer" : 0,
            "byteLength" : 192,
            "byteOffset" : 6892
        },
        {
            "buffer" : 0,
            "byteLength" : 72,
            "byteOffset" : 7084
        }
    ],
    "buffers" : [
        {
            "byteLength" : 7156,
            "uri" : "data:application/octet-stream;base64,"
        }
    ]
}
